<mxfile host="app.diagrams.net" agent="Mozilla/5.0 (Windows NT 10.0; Win64; x64) AppleWebKit/537.36 (KHTML, like Gecko) Chrome/129.0.0.0 Safari/537.36 Edg/129.0.0.0" version="24.7.17">
  <diagram name="Page-1" id="g4PY5eGOAMVwyb2hx560">
    <mxGraphModel dx="2916" dy="1189" grid="1" gridSize="10" guides="1" tooltips="1" connect="1" arrows="1" fold="1" page="1" pageScale="1" pageWidth="850" pageHeight="1100" math="0" shadow="0">
      <root>
        <mxCell id="0" />
        <mxCell id="1" parent="0" />
        <mxCell id="-rPrMi9mVUUpKUwKcgZm-16" value="PHN, Password" style="edgeStyle=orthogonalEdgeStyle;rounded=0;orthogonalLoop=1;jettySize=auto;html=1;exitX=0.75;exitY=0;exitDx=0;exitDy=0;entryX=0;entryY=0.5;entryDx=0;entryDy=0;" edge="1" parent="1" source="-rPrMi9mVUUpKUwKcgZm-7" target="-rPrMi9mVUUpKUwKcgZm-15">
          <mxGeometry x="-0.125" relative="1" as="geometry">
            <mxPoint as="offset" />
          </mxGeometry>
        </mxCell>
        <mxCell id="-rPrMi9mVUUpKUwKcgZm-24" value="Credentials" style="edgeStyle=orthogonalEdgeStyle;rounded=0;orthogonalLoop=1;jettySize=auto;html=1;exitX=1;exitY=1;exitDx=0;exitDy=0;entryX=0;entryY=0.5;entryDx=0;entryDy=0;" edge="1" parent="1" source="-rPrMi9mVUUpKUwKcgZm-7" target="-rPrMi9mVUUpKUwKcgZm-21">
          <mxGeometry relative="1" as="geometry" />
        </mxCell>
        <mxCell id="-rPrMi9mVUUpKUwKcgZm-54" value="Symptoms, Relevant Health Information" style="edgeStyle=orthogonalEdgeStyle;rounded=0;orthogonalLoop=1;jettySize=auto;html=1;exitX=0.25;exitY=1;exitDx=0;exitDy=0;entryX=0.5;entryY=0;entryDx=0;entryDy=0;" edge="1" parent="1" source="-rPrMi9mVUUpKUwKcgZm-7" target="-rPrMi9mVUUpKUwKcgZm-33">
          <mxGeometry x="0.2093" y="-10" relative="1" as="geometry">
            <mxPoint as="offset" />
          </mxGeometry>
        </mxCell>
        <mxCell id="-rPrMi9mVUUpKUwKcgZm-76" value="View Request" style="edgeStyle=orthogonalEdgeStyle;rounded=0;orthogonalLoop=1;jettySize=auto;html=1;exitX=0;exitY=0.75;exitDx=0;exitDy=0;entryX=0;entryY=0;entryDx=0;entryDy=0;" edge="1" parent="1" source="-rPrMi9mVUUpKUwKcgZm-7" target="-rPrMi9mVUUpKUwKcgZm-34">
          <mxGeometry x="0.8968" y="8" relative="1" as="geometry">
            <mxPoint x="-110" y="900" as="targetPoint" />
            <Array as="points">
              <mxPoint x="-90" y="415" />
              <mxPoint x="-90" y="888" />
            </Array>
            <mxPoint as="offset" />
          </mxGeometry>
        </mxCell>
        <mxCell id="-rPrMi9mVUUpKUwKcgZm-90" value="Request" style="edgeStyle=orthogonalEdgeStyle;rounded=0;orthogonalLoop=1;jettySize=auto;html=1;exitX=0;exitY=0.25;exitDx=0;exitDy=0;entryX=0.5;entryY=1;entryDx=0;entryDy=0;" edge="1" parent="1" source="-rPrMi9mVUUpKUwKcgZm-7" target="-rPrMi9mVUUpKUwKcgZm-35">
          <mxGeometry relative="1" as="geometry" />
        </mxCell>
        <mxCell id="-rPrMi9mVUUpKUwKcgZm-7" value="Patient" style="rounded=0;whiteSpace=wrap;html=1;" vertex="1" parent="1">
          <mxGeometry x="210" y="370" width="120" height="60" as="geometry" />
        </mxCell>
        <mxCell id="-rPrMi9mVUUpKUwKcgZm-17" value="Account" style="edgeStyle=orthogonalEdgeStyle;rounded=0;orthogonalLoop=1;jettySize=auto;html=1;exitX=0;exitY=0;exitDx=0;exitDy=0;entryX=0.25;entryY=0;entryDx=0;entryDy=0;" edge="1" parent="1" source="-rPrMi9mVUUpKUwKcgZm-15" target="-rPrMi9mVUUpKUwKcgZm-7">
          <mxGeometry x="0.2272" relative="1" as="geometry">
            <mxPoint as="offset" />
          </mxGeometry>
        </mxCell>
        <mxCell id="-rPrMi9mVUUpKUwKcgZm-19" value="PHN, Password" style="edgeStyle=orthogonalEdgeStyle;rounded=0;orthogonalLoop=1;jettySize=auto;html=1;exitX=0.5;exitY=1;exitDx=0;exitDy=0;entryX=0.5;entryY=0;entryDx=0;entryDy=0;" edge="1" parent="1" source="-rPrMi9mVUUpKUwKcgZm-15" target="-rPrMi9mVUUpKUwKcgZm-18">
          <mxGeometry relative="1" as="geometry" />
        </mxCell>
        <mxCell id="-rPrMi9mVUUpKUwKcgZm-15" value="1. Register_Account" style="ellipse;whiteSpace=wrap;html=1;aspect=fixed;" vertex="1" parent="1">
          <mxGeometry x="430" y="150" width="120" height="120" as="geometry" />
        </mxCell>
        <mxCell id="-rPrMi9mVUUpKUwKcgZm-22" value="Confirmation/Denial" style="edgeStyle=orthogonalEdgeStyle;rounded=0;orthogonalLoop=1;jettySize=auto;html=1;exitX=0.25;exitY=1;exitDx=0;exitDy=0;entryX=0;entryY=0;entryDx=0;entryDy=0;" edge="1" parent="1" source="-rPrMi9mVUUpKUwKcgZm-18" target="-rPrMi9mVUUpKUwKcgZm-21">
          <mxGeometry x="0.2389" y="-38" relative="1" as="geometry">
            <Array as="points">
              <mxPoint x="465" y="400" />
              <mxPoint x="448" y="400" />
            </Array>
            <mxPoint as="offset" />
          </mxGeometry>
        </mxCell>
        <mxCell id="-rPrMi9mVUUpKUwKcgZm-18" value="Logins" style="html=1;dashed=0;whiteSpace=wrap;shape=partialRectangle;right=0;left=0;" vertex="1" parent="1">
          <mxGeometry x="440" y="330" width="100" height="30" as="geometry" />
        </mxCell>
        <mxCell id="-rPrMi9mVUUpKUwKcgZm-23" value="Credential Check" style="edgeStyle=orthogonalEdgeStyle;rounded=0;orthogonalLoop=1;jettySize=auto;html=1;exitX=1;exitY=0;exitDx=0;exitDy=0;entryX=0.75;entryY=1;entryDx=0;entryDy=0;" edge="1" parent="1" source="-rPrMi9mVUUpKUwKcgZm-21" target="-rPrMi9mVUUpKUwKcgZm-18">
          <mxGeometry x="-0.2388" y="-28" relative="1" as="geometry">
            <mxPoint as="offset" />
          </mxGeometry>
        </mxCell>
        <mxCell id="-rPrMi9mVUUpKUwKcgZm-26" value="Confirmation/Denial" style="edgeStyle=orthogonalEdgeStyle;rounded=0;orthogonalLoop=1;jettySize=auto;html=1;exitX=0;exitY=1;exitDx=0;exitDy=0;entryX=0.75;entryY=1;entryDx=0;entryDy=0;" edge="1" parent="1" source="-rPrMi9mVUUpKUwKcgZm-21" target="-rPrMi9mVUUpKUwKcgZm-7">
          <mxGeometry x="-0.2031" relative="1" as="geometry">
            <mxPoint as="offset" />
          </mxGeometry>
        </mxCell>
        <mxCell id="-rPrMi9mVUUpKUwKcgZm-43" value="Confirmation/Denial" style="edgeStyle=orthogonalEdgeStyle;rounded=0;orthogonalLoop=1;jettySize=auto;html=1;exitX=0.97;exitY=0.33;exitDx=0;exitDy=0;exitPerimeter=0;entryX=1;entryY=0.75;entryDx=0;entryDy=0;" edge="1" parent="1" source="-rPrMi9mVUUpKUwKcgZm-21" target="-rPrMi9mVUUpKUwKcgZm-38">
          <mxGeometry x="-0.4953" relative="1" as="geometry">
            <mxPoint x="820" y="740" as="targetPoint" />
            <Array as="points">
              <mxPoint x="820" y="490" />
              <mxPoint x="820" y="735" />
            </Array>
            <mxPoint as="offset" />
          </mxGeometry>
        </mxCell>
        <mxCell id="-rPrMi9mVUUpKUwKcgZm-21" value="4. User_login" style="ellipse;whiteSpace=wrap;html=1;aspect=fixed;points=[[0,0,0,0,0],[0,0.5,0,0,0],[0,1,0,0,0],[0.5,0,0,0,0],[0.5,1,0,0,0],[0.97,0.33,0,0,0],[1,0.5,0,0,0],[1,1,0,0,0]];" vertex="1" parent="1">
          <mxGeometry x="430" y="450" width="120" height="120" as="geometry" />
        </mxCell>
        <mxCell id="-rPrMi9mVUUpKUwKcgZm-27" value="Login Credentials" style="swimlane;fontStyle=0;childLayout=stackLayout;horizontal=1;startSize=30;horizontalStack=0;resizeParent=1;resizeParentMax=0;resizeLast=0;collapsible=1;marginBottom=0;whiteSpace=wrap;html=1;" vertex="1" parent="1">
          <mxGeometry x="120" y="20" width="140" height="120" as="geometry" />
        </mxCell>
        <mxCell id="-rPrMi9mVUUpKUwKcgZm-28" value="PHN (Patient)" style="text;strokeColor=none;fillColor=none;align=left;verticalAlign=middle;spacingLeft=4;spacingRight=4;overflow=hidden;points=[[0,0.5],[1,0.5]];portConstraint=eastwest;rotatable=0;whiteSpace=wrap;html=1;" vertex="1" parent="-rPrMi9mVUUpKUwKcgZm-27">
          <mxGeometry y="30" width="140" height="30" as="geometry" />
        </mxCell>
        <mxCell id="-rPrMi9mVUUpKUwKcgZm-29" value="Work Provided Identifier (Else)" style="text;strokeColor=none;fillColor=none;align=left;verticalAlign=middle;spacingLeft=4;spacingRight=4;overflow=hidden;points=[[0,0.5],[1,0.5]];portConstraint=eastwest;rotatable=0;whiteSpace=wrap;html=1;" vertex="1" parent="-rPrMi9mVUUpKUwKcgZm-27">
          <mxGeometry y="60" width="140" height="30" as="geometry" />
        </mxCell>
        <mxCell id="-rPrMi9mVUUpKUwKcgZm-30" value="Password" style="text;strokeColor=none;fillColor=none;align=left;verticalAlign=middle;spacingLeft=4;spacingRight=4;overflow=hidden;points=[[0,0.5],[1,0.5]];portConstraint=eastwest;rotatable=0;whiteSpace=wrap;html=1;" vertex="1" parent="-rPrMi9mVUUpKUwKcgZm-27">
          <mxGeometry y="90" width="140" height="30" as="geometry" />
        </mxCell>
        <mxCell id="-rPrMi9mVUUpKUwKcgZm-49" style="edgeStyle=orthogonalEdgeStyle;rounded=0;orthogonalLoop=1;jettySize=auto;html=1;exitX=1;exitY=0.25;exitDx=0;exitDy=0;" edge="1" parent="1" source="-rPrMi9mVUUpKUwKcgZm-31">
          <mxGeometry relative="1" as="geometry">
            <mxPoint x="790" y="545" as="targetPoint" />
          </mxGeometry>
        </mxCell>
        <mxCell id="-rPrMi9mVUUpKUwKcgZm-51" style="edgeStyle=orthogonalEdgeStyle;rounded=0;orthogonalLoop=1;jettySize=auto;html=1;exitX=1;exitY=0.75;exitDx=0;exitDy=0;entryX=1;entryY=0.75;entryDx=0;entryDy=0;" edge="1" parent="1" target="-rPrMi9mVUUpKUwKcgZm-31">
          <mxGeometry relative="1" as="geometry">
            <mxPoint x="820" y="575" as="sourcePoint" />
          </mxGeometry>
        </mxCell>
        <mxCell id="-rPrMi9mVUUpKUwKcgZm-62" style="edgeStyle=orthogonalEdgeStyle;rounded=0;orthogonalLoop=1;jettySize=auto;html=1;exitX=0;exitY=0.25;exitDx=0;exitDy=0;entryX=0;entryY=0.25;entryDx=0;entryDy=0;" edge="1" parent="1" target="-rPrMi9mVUUpKUwKcgZm-31">
          <mxGeometry relative="1" as="geometry">
            <mxPoint x="560" y="630" as="sourcePoint" />
            <Array as="points">
              <mxPoint x="560" y="545" />
            </Array>
          </mxGeometry>
        </mxCell>
        <mxCell id="-rPrMi9mVUUpKUwKcgZm-69" style="edgeStyle=orthogonalEdgeStyle;rounded=0;orthogonalLoop=1;jettySize=auto;html=1;exitX=0;exitY=0.75;exitDx=0;exitDy=0;" edge="1" parent="1" source="-rPrMi9mVUUpKUwKcgZm-31">
          <mxGeometry relative="1" as="geometry">
            <mxPoint x="600" y="575" as="targetPoint" />
          </mxGeometry>
        </mxCell>
        <mxCell id="-rPrMi9mVUUpKUwKcgZm-31" value="Doctor&lt;span style=&quot;color: rgba(0, 0, 0, 0); font-family: monospace; font-size: 0px; text-align: start; text-wrap: nowrap;&quot;&gt;%3CmxGraphModel%3E%3Croot%3E%3CmxCell%20id%3D%220%22%2F%3E%3CmxCell%20id%3D%221%22%20parent%3D%220%22%2F%3E%3CmxCell%20id%3D%222%22%20value%3D%224.%20User_login%22%20style%3D%22ellipse%3BwhiteSpace%3Dwrap%3Bhtml%3D1%3Baspect%3Dfixed%3B%22%20vertex%3D%221%22%20parent%3D%221%22%3E%3CmxGeometry%20x%3D%22320%22%20y%3D%22460%22%20width%3D%22120%22%20height%3D%22120%22%20as%3D%22geometry%22%2F%3E%3C%2FmxCell%3E%3C%2Froot%3E%3C%2FmxGraphModel%3E&lt;/span&gt;" style="rounded=0;whiteSpace=wrap;html=1;" vertex="1" parent="1">
          <mxGeometry x="650" y="530" width="120" height="60" as="geometry" />
        </mxCell>
        <mxCell id="-rPrMi9mVUUpKUwKcgZm-33" value="2. Create_Triage_ Application" style="ellipse;whiteSpace=wrap;html=1;aspect=fixed;" vertex="1" parent="1">
          <mxGeometry x="-50" y="630" width="120" height="120" as="geometry" />
        </mxCell>
        <mxCell id="-rPrMi9mVUUpKUwKcgZm-77" value="Notification, Diagnosis/Treatment Process" style="edgeStyle=orthogonalEdgeStyle;rounded=0;orthogonalLoop=1;jettySize=auto;html=1;exitX=0;exitY=1;exitDx=0;exitDy=0;entryX=0;entryY=0.5;entryDx=0;entryDy=0;" edge="1" parent="1" source="-rPrMi9mVUUpKUwKcgZm-34" target="-rPrMi9mVUUpKUwKcgZm-7">
          <mxGeometry x="-0.8792" y="18" relative="1" as="geometry">
            <mxPoint x="-120" y="390" as="targetPoint" />
            <Array as="points">
              <mxPoint x="-110" y="972" />
              <mxPoint x="-110" y="400" />
            </Array>
            <mxPoint as="offset" />
          </mxGeometry>
        </mxCell>
        <mxCell id="-rPrMi9mVUUpKUwKcgZm-34" value="3. Patient Notification" style="ellipse;whiteSpace=wrap;html=1;aspect=fixed;" vertex="1" parent="1">
          <mxGeometry x="430" y="870" width="120" height="120" as="geometry" />
        </mxCell>
        <mxCell id="-rPrMi9mVUUpKUwKcgZm-91" value="Clinic Capacity" style="edgeStyle=orthogonalEdgeStyle;rounded=0;orthogonalLoop=1;jettySize=auto;html=1;exitX=1;exitY=1;exitDx=0;exitDy=0;entryX=0;entryY=0;entryDx=0;entryDy=0;" edge="1" parent="1" source="-rPrMi9mVUUpKUwKcgZm-35" target="-rPrMi9mVUUpKUwKcgZm-7">
          <mxGeometry relative="1" as="geometry" />
        </mxCell>
        <mxCell id="-rPrMi9mVUUpKUwKcgZm-95" value="Request" style="edgeStyle=orthogonalEdgeStyle;rounded=0;orthogonalLoop=1;jettySize=auto;html=1;exitX=0;exitY=1;exitDx=0;exitDy=0;entryX=0.75;entryY=1;entryDx=0;entryDy=0;" edge="1" parent="1" source="-rPrMi9mVUUpKUwKcgZm-35" target="-rPrMi9mVUUpKUwKcgZm-92">
          <mxGeometry relative="1" as="geometry">
            <Array as="points">
              <mxPoint x="-175" y="302" />
            </Array>
          </mxGeometry>
        </mxCell>
        <mxCell id="-rPrMi9mVUUpKUwKcgZm-96" value="Clinic Capactiy" style="edgeStyle=orthogonalEdgeStyle;rounded=0;orthogonalLoop=1;jettySize=auto;html=1;exitX=0.75;exitY=0;exitDx=0;exitDy=0;entryX=0;entryY=0;entryDx=0;entryDy=0;" edge="1" parent="1" source="-rPrMi9mVUUpKUwKcgZm-92" target="-rPrMi9mVUUpKUwKcgZm-35">
          <mxGeometry relative="1" as="geometry" />
        </mxCell>
        <mxCell id="-rPrMi9mVUUpKUwKcgZm-35" value="5. View Clinic Capacity" style="ellipse;whiteSpace=wrap;html=1;aspect=fixed;" vertex="1" parent="1">
          <mxGeometry x="-50" y="200" width="120" height="120" as="geometry" />
        </mxCell>
        <mxCell id="-rPrMi9mVUUpKUwKcgZm-61" style="edgeStyle=orthogonalEdgeStyle;rounded=0;orthogonalLoop=1;jettySize=auto;html=1;exitX=0.5;exitY=0;exitDx=0;exitDy=0;entryX=0;entryY=0.25;entryDx=0;entryDy=0;" edge="1" parent="1" source="-rPrMi9mVUUpKUwKcgZm-36" target="-rPrMi9mVUUpKUwKcgZm-39">
          <mxGeometry relative="1" as="geometry" />
        </mxCell>
        <mxCell id="-rPrMi9mVUUpKUwKcgZm-64" value="Complete Triage Application" style="edgeLabel;html=1;align=center;verticalAlign=middle;resizable=0;points=[];" vertex="1" connectable="0" parent="-rPrMi9mVUUpKUwKcgZm-61">
          <mxGeometry x="-0.4537" y="1" relative="1" as="geometry">
            <mxPoint x="-11" y="-4" as="offset" />
          </mxGeometry>
        </mxCell>
        <mxCell id="-rPrMi9mVUUpKUwKcgZm-65" style="edgeStyle=orthogonalEdgeStyle;rounded=0;orthogonalLoop=1;jettySize=auto;html=1;exitX=0;exitY=0.75;exitDx=0;exitDy=0;entryX=1;entryY=0.5;entryDx=0;entryDy=0;" edge="1" parent="1" source="-rPrMi9mVUUpKUwKcgZm-31" target="-rPrMi9mVUUpKUwKcgZm-36">
          <mxGeometry relative="1" as="geometry" />
        </mxCell>
        <mxCell id="-rPrMi9mVUUpKUwKcgZm-84" value="Triage View Req" style="edgeStyle=orthogonalEdgeStyle;rounded=0;orthogonalLoop=1;jettySize=auto;html=1;exitX=0;exitY=0;exitDx=0;exitDy=0;entryX=1;entryY=0;entryDx=0;entryDy=0;" edge="1" parent="1" source="-rPrMi9mVUUpKUwKcgZm-36" target="-rPrMi9mVUUpKUwKcgZm-82">
          <mxGeometry x="0.6522" y="-10" relative="1" as="geometry">
            <Array as="points">
              <mxPoint x="448" y="710" />
              <mxPoint x="390" y="710" />
              <mxPoint x="390" y="630" />
            </Array>
            <mxPoint as="offset" />
          </mxGeometry>
        </mxCell>
        <mxCell id="-rPrMi9mVUUpKUwKcgZm-36" value="6. View Triage Application" style="ellipse;whiteSpace=wrap;html=1;aspect=fixed;" vertex="1" parent="1">
          <mxGeometry x="430" y="670" width="120" height="120" as="geometry" />
        </mxCell>
        <mxCell id="-rPrMi9mVUUpKUwKcgZm-42" value="Credentials" style="edgeStyle=orthogonalEdgeStyle;rounded=0;orthogonalLoop=1;jettySize=auto;html=1;exitX=1;exitY=0.25;exitDx=0;exitDy=0;entryX=1;entryY=0.5;entryDx=0;entryDy=0;" edge="1" parent="1" source="-rPrMi9mVUUpKUwKcgZm-38" target="-rPrMi9mVUUpKUwKcgZm-21">
          <mxGeometry x="0.7802" relative="1" as="geometry">
            <mxPoint as="offset" />
          </mxGeometry>
        </mxCell>
        <mxCell id="-rPrMi9mVUUpKUwKcgZm-63" style="edgeStyle=orthogonalEdgeStyle;rounded=0;orthogonalLoop=1;jettySize=auto;html=1;exitX=0;exitY=0.25;exitDx=0;exitDy=0;entryX=0;entryY=0.25;entryDx=0;entryDy=0;" edge="1" parent="1" target="-rPrMi9mVUUpKUwKcgZm-38">
          <mxGeometry relative="1" as="geometry">
            <mxPoint x="560" y="620" as="sourcePoint" />
            <Array as="points">
              <mxPoint x="560" y="705" />
            </Array>
          </mxGeometry>
        </mxCell>
        <mxCell id="-rPrMi9mVUUpKUwKcgZm-67" value="Triage View Request" style="edgeStyle=orthogonalEdgeStyle;rounded=0;orthogonalLoop=1;jettySize=auto;html=1;exitX=0;exitY=0.75;exitDx=0;exitDy=0;entryX=1;entryY=0.5;entryDx=0;entryDy=0;" edge="1" parent="1" source="-rPrMi9mVUUpKUwKcgZm-38" target="-rPrMi9mVUUpKUwKcgZm-36">
          <mxGeometry x="-0.037" y="-20" relative="1" as="geometry">
            <Array as="points">
              <mxPoint x="650" y="750" />
              <mxPoint x="600" y="750" />
              <mxPoint x="600" y="730" />
            </Array>
            <mxPoint x="-20" y="20" as="offset" />
          </mxGeometry>
        </mxCell>
        <mxCell id="-rPrMi9mVUUpKUwKcgZm-68" style="edgeStyle=orthogonalEdgeStyle;rounded=0;orthogonalLoop=1;jettySize=auto;html=1;exitX=1;exitY=0.25;exitDx=0;exitDy=0;" edge="1" parent="1" source="-rPrMi9mVUUpKUwKcgZm-38">
          <mxGeometry relative="1" as="geometry">
            <mxPoint x="790" y="705" as="targetPoint" />
          </mxGeometry>
        </mxCell>
        <mxCell id="-rPrMi9mVUUpKUwKcgZm-70" style="edgeStyle=orthogonalEdgeStyle;rounded=0;orthogonalLoop=1;jettySize=auto;html=1;exitX=0;exitY=1;exitDx=0;exitDy=0;" edge="1" parent="1" source="-rPrMi9mVUUpKUwKcgZm-38">
          <mxGeometry relative="1" as="geometry">
            <mxPoint x="600" y="750" as="targetPoint" />
            <Array as="points">
              <mxPoint x="626" y="750" />
              <mxPoint x="626" y="751" />
            </Array>
          </mxGeometry>
        </mxCell>
        <mxCell id="-rPrMi9mVUUpKUwKcgZm-73" style="edgeStyle=orthogonalEdgeStyle;rounded=0;orthogonalLoop=1;jettySize=auto;html=1;exitX=0.25;exitY=1;exitDx=0;exitDy=0;entryX=1;entryY=0.5;entryDx=0;entryDy=0;" edge="1" parent="1" source="-rPrMi9mVUUpKUwKcgZm-38" target="-rPrMi9mVUUpKUwKcgZm-34">
          <mxGeometry relative="1" as="geometry" />
        </mxCell>
        <mxCell id="-rPrMi9mVUUpKUwKcgZm-74" value="Diagnosis/Treatment Process" style="edgeLabel;html=1;align=center;verticalAlign=middle;resizable=0;points=[];" vertex="1" connectable="0" parent="-rPrMi9mVUUpKUwKcgZm-73">
          <mxGeometry x="0.3097" y="1" relative="1" as="geometry">
            <mxPoint y="9" as="offset" />
          </mxGeometry>
        </mxCell>
        <mxCell id="-rPrMi9mVUUpKUwKcgZm-38" value="Nurse" style="rounded=0;whiteSpace=wrap;html=1;" vertex="1" parent="1">
          <mxGeometry x="650" y="690" width="120" height="60" as="geometry" />
        </mxCell>
        <mxCell id="-rPrMi9mVUUpKUwKcgZm-50" style="edgeStyle=orthogonalEdgeStyle;rounded=0;orthogonalLoop=1;jettySize=auto;html=1;exitX=1;exitY=0.25;exitDx=0;exitDy=0;" edge="1" parent="1" source="-rPrMi9mVUUpKUwKcgZm-39">
          <mxGeometry relative="1" as="geometry">
            <mxPoint x="790" y="625" as="targetPoint" />
          </mxGeometry>
        </mxCell>
        <mxCell id="-rPrMi9mVUUpKUwKcgZm-52" style="edgeStyle=orthogonalEdgeStyle;rounded=0;orthogonalLoop=1;jettySize=auto;html=1;exitX=1;exitY=0.75;exitDx=0;exitDy=0;entryX=1;entryY=0.75;entryDx=0;entryDy=0;" edge="1" parent="1" target="-rPrMi9mVUUpKUwKcgZm-39">
          <mxGeometry relative="1" as="geometry">
            <mxPoint x="820" y="655" as="sourcePoint" />
          </mxGeometry>
        </mxCell>
        <mxCell id="-rPrMi9mVUUpKUwKcgZm-66" style="edgeStyle=orthogonalEdgeStyle;rounded=0;orthogonalLoop=1;jettySize=auto;html=1;exitX=0;exitY=0.75;exitDx=0;exitDy=0;" edge="1" parent="1" source="-rPrMi9mVUUpKUwKcgZm-39">
          <mxGeometry relative="1" as="geometry">
            <mxPoint x="600" y="655" as="targetPoint" />
          </mxGeometry>
        </mxCell>
        <mxCell id="-rPrMi9mVUUpKUwKcgZm-39" value="Hotline Operator" style="rounded=0;whiteSpace=wrap;html=1;" vertex="1" parent="1">
          <mxGeometry x="650" y="610" width="120" height="60" as="geometry" />
        </mxCell>
        <mxCell id="-rPrMi9mVUUpKUwKcgZm-85" value="Complete Triage Application" style="edgeStyle=orthogonalEdgeStyle;rounded=0;orthogonalLoop=1;jettySize=auto;html=1;exitX=0.5;exitY=0;exitDx=0;exitDy=0;entryX=0.5;entryY=1;entryDx=0;entryDy=0;" edge="1" parent="1" source="-rPrMi9mVUUpKUwKcgZm-53" target="-rPrMi9mVUUpKUwKcgZm-82">
          <mxGeometry x="-0.0909" relative="1" as="geometry">
            <mxPoint as="offset" />
          </mxGeometry>
        </mxCell>
        <mxCell id="-rPrMi9mVUUpKUwKcgZm-87" value="Complete Triage Application" style="edgeStyle=orthogonalEdgeStyle;rounded=0;orthogonalLoop=1;jettySize=auto;html=1;exitX=0.25;exitY=1;exitDx=0;exitDy=0;entryX=0.5;entryY=1;entryDx=0;entryDy=0;" edge="1" parent="1" source="-rPrMi9mVUUpKUwKcgZm-53" target="-rPrMi9mVUUpKUwKcgZm-33">
          <mxGeometry relative="1" as="geometry" />
        </mxCell>
        <mxCell id="-rPrMi9mVUUpKUwKcgZm-53" value="Triage Form" style="html=1;dashed=0;whiteSpace=wrap;shape=partialRectangle;right=0;left=0;" vertex="1" parent="1">
          <mxGeometry x="220" y="715" width="100" height="30" as="geometry" />
        </mxCell>
        <mxCell id="-rPrMi9mVUUpKUwKcgZm-78" value="Symptoms, Relevant Health Info" style="edgeStyle=orthogonalEdgeStyle;rounded=0;orthogonalLoop=1;jettySize=auto;html=1;exitX=1;exitY=1;exitDx=0;exitDy=0;entryX=0;entryY=0.5;entryDx=0;entryDy=0;" edge="1" parent="1" source="-rPrMi9mVUUpKUwKcgZm-33" target="-rPrMi9mVUUpKUwKcgZm-53">
          <mxGeometry x="0.1175" y="11" relative="1" as="geometry">
            <mxPoint x="-5" y="1" as="offset" />
          </mxGeometry>
        </mxCell>
        <mxCell id="-rPrMi9mVUUpKUwKcgZm-79" style="edgeStyle=orthogonalEdgeStyle;rounded=0;orthogonalLoop=1;jettySize=auto;html=1;exitX=0.7;exitY=0.058;exitDx=0;exitDy=0;entryX=0.5;entryY=1;entryDx=0;entryDy=0;exitPerimeter=0;" edge="1" parent="1" source="-rPrMi9mVUUpKUwKcgZm-33" target="-rPrMi9mVUUpKUwKcgZm-7">
          <mxGeometry relative="1" as="geometry">
            <Array as="points">
              <mxPoint x="34" y="540" />
              <mxPoint x="270" y="540" />
            </Array>
          </mxGeometry>
        </mxCell>
        <mxCell id="-rPrMi9mVUUpKUwKcgZm-80" value="Complete Triage Application" style="edgeLabel;html=1;align=center;verticalAlign=middle;resizable=0;points=[];" vertex="1" connectable="0" parent="1">
          <mxGeometry x="500" y="620" as="geometry">
            <mxPoint x="-350" y="-70" as="offset" />
          </mxGeometry>
        </mxCell>
        <mxCell id="-rPrMi9mVUUpKUwKcgZm-83" value="Complete Triage Ap" style="edgeStyle=orthogonalEdgeStyle;rounded=0;orthogonalLoop=1;jettySize=auto;html=1;exitX=1;exitY=0.5;exitDx=0;exitDy=0;entryX=0;entryY=0.5;entryDx=0;entryDy=0;" edge="1" parent="1" source="-rPrMi9mVUUpKUwKcgZm-82" target="-rPrMi9mVUUpKUwKcgZm-36">
          <mxGeometry x="0.4872" y="-10" relative="1" as="geometry">
            <mxPoint as="offset" />
          </mxGeometry>
        </mxCell>
        <mxCell id="-rPrMi9mVUUpKUwKcgZm-82" value="Complete Triage Forms" style="html=1;dashed=0;whiteSpace=wrap;shape=partialRectangle;right=0;left=0;" vertex="1" parent="1">
          <mxGeometry x="220" y="630" width="100" height="30" as="geometry" />
        </mxCell>
        <mxCell id="-rPrMi9mVUUpKUwKcgZm-92" value="Clinic Capacity Info" style="html=1;dashed=0;whiteSpace=wrap;shape=partialRectangle;right=0;left=0;" vertex="1" parent="1">
          <mxGeometry x="-250" y="245" width="100" height="30" as="geometry" />
        </mxCell>
      </root>
    </mxGraphModel>
  </diagram>
</mxfile>
